<?xml version="1.0" encoding="UTF-8"?>
<svg version="1.1" xmlns="http://www.w3.org/2000/svg" width="48" height="48">
<path d="M0 0 C13.86 0 27.72 0 42 0 C42 10.56 42 21.12 42 32 C28.14 32 14.28 32 0 32 C0 21.44 0 10.88 0 0 Z " fill="#1C9FE3" transform="translate(3,8)"/>
<path d="M0 0 C13.86 0 27.72 0 42 0 C40.79098736 6.04506322 39.58363855 6.51673206 34.80664062 9.75390625 C33.98357422 10.28886719 33.16050781 10.82382812 32.3125 11.375 C31.50876953 11.93316406 30.70503906 12.49132813 29.87695312 13.06640625 C24.01614673 16.94805235 24.01614673 16.94805235 19.8671875 17.16015625 C16.07544785 15.62589647 13.05517415 13.52997777 9.8125 11.0625 C8.58994024 10.15742173 7.36728734 9.25246926 6.14453125 8.34765625 C5.10683594 7.57292969 4.06914062 6.79820313 3 6 C2.01 5.34 1.02 4.68 0 4 C0 2.68 0 1.36 0 0 Z " fill="#4FE5FE" transform="translate(3,8)"/>
<path d="M0 0 C0.66 0.33 1.32 0.66 2 1 C0.47392422 2.3511501 -1.07162856 3.68032161 -2.625 5 C-3.48351562 5.7425 -4.34203125 6.485 -5.2265625 7.25 C-8.50718752 9.32002818 -10.18886589 9.53852982 -14 9 C-16.39701193 7.61900548 -17.9732772 5.93021219 -20 4 C-19.67 3.34 -19.34 2.68 -19 2 C-18.13375 2.680625 -17.2675 3.36125 -16.375 4.0625 C-13.22376407 6.23000594 -13.22376407 6.23000594 -10.0625 6.0625 C-6.04783606 4.66965741 -3.34837403 2.61173174 0 0 Z " fill="#1F9AD4" transform="translate(35,18)"/>
</svg>
