<?xml version="1.0" standalone="no"?>
<!DOCTYPE svg PUBLIC "-//W3C//DTD SVG 20010904//EN"
 "http://www.w3.org/TR/2001/REC-SVG-20010904/DTD/svg10.dtd">
<svg version="1.0" xmlns="http://www.w3.org/2000/svg"
 width="512.000000pt" height="512.000000pt" viewBox="0 0 512.000000 512.000000"
 preserveAspectRatio="xMidYMid meet">

<g transform="translate(0.000000,512.000000) scale(0.100000,-0.100000)"
fill="#000000" stroke="none">
<path d="M1975 5114 c-307 -43 -537 -112 -779 -237 -334 -171 -633 -442 -846
-767 -70 -106 -184 -336 -225 -450 -43 -121 -93 -330 -110 -455 -20 -152 -20
-460 0 -603 60 -426 241 -825 528 -1157 351 -408 846 -671 1407 -746 218 -29
540 -12 775 43 220 51 523 181 710 306 l90 60 530 -527 c415 -413 541 -533
580 -552 39 -19 71 -25 142 -27 81 -3 99 -1 146 21 75 34 131 88 167 159 26
53 30 72 30 144 0 60 -6 99 -21 141 -20 55 -53 90 -554 593 l-533 535 60 90
c169 253 293 581 344 910 20 132 23 448 5 575 -46 331 -153 637 -311 895 -174
285 -448 558 -740 738 -219 135 -496 239 -780 293 -82 15 -537 29 -615 18z
m436 -175 c383 -39 726 -172 1039 -402 118 -87 314 -283 402 -400 470 -632
545 -1458 195 -2152 -415 -826 -1330 -1272 -2233 -1090 -720 145 -1309 668
-1538 1365 -168 512 -134 1042 99 1528 110 229 233 400 421 583 169 164 323
271 539 375 338 162 716 230 1076 193z m1542 -3771 l-123 -123 -84 84 -84 84
122 122 121 123 85 -84 85 -84 -122 -122z m967 -734 c32 -51 35 -111 8 -164
-40 -78 -116 -112 -199 -90 -39 10 -85 52 -412 378 l-367 367 122 122 123 123
353 -352 c194 -194 362 -367 372 -384z"/>
<path d="M2030 4769 c-633 -65 -1196 -452 -1479 -1017 -100 -199 -155 -375
-187 -592 -22 -154 -15 -470 15 -610 76 -367 235 -674 481 -933 292 -307 636
-489 1080 -568 113 -21 469 -18 590 4 404 74 754 259 1030 543 166 172 258
303 356 509 122 260 178 517 177 815 -4 759 -468 1438 -1177 1724 -120 49
-262 87 -291 80 -33 -8 -65 -50 -65 -83 0 -48 25 -68 118 -96 432 -129 765
-379 994 -747 439 -707 297 -1642 -333 -2186 -734 -635 -1840 -536 -2448 218
-395 490 -488 1153 -244 1733 177 423 518 755 949 926 171 68 340 104 549 117
95 6 112 10 132 30 14 14 23 35 23 53 0 88 -49 102 -270 80z"/>
<path d="M2070 3999 c-224 -33 -497 -169 -725 -361 -230 -193 -536 -551 -566
-661 -15 -58 -7 -144 19 -198 30 -63 210 -286 334 -414 248 -258 517 -441 764
-519 131 -41 192 -50 334 -49 111 1 153 5 232 26 367 97 711 352 1056 785 107
136 141 194 149 261 13 111 -37 201 -254 452 -434 502 -911 743 -1343 678z
m344 -219 c244 -62 451 -255 531 -493 71 -214 47 -447 -67 -642 -60 -103 -193
-230 -293 -282 -120 -62 -202 -84 -330 -90 -302 -14 -577 142 -714 405 -230
443 7 975 489 1101 104 28 279 28 384 1z m-1085 -442 c-51 -152 -61 -286 -34
-441 69 -394 380 -705 769 -767 107 -18 310 -8 406 20 286 81 526 302 629 580
74 200 75 433 1 640 l-20 55 100 -104 c109 -112 257 -290 297 -359 36 -61 27
-91 -61 -207 -317 -416 -653 -675 -994 -767 -109 -29 -286 -29 -402 -1 -334
83 -683 354 -1009 782 -91 120 -92 140 -11 251 83 113 154 196 264 308 50 50
91 92 91 92 1 0 -11 -37 -26 -82z"/>
<path d="M1855 3556 c-98 -45 -152 -138 -143 -249 6 -71 23 -111 69 -156 103
-104 257 -104 359 -1 131 130 88 343 -83 415 -55 23 -143 19 -202 -9z m150
-152 c44 -17 54 -103 16 -138 -33 -30 -74 -30 -109 -1 -77 65 -3 175 93 139z"/>
</g>
</svg>
